<svg width="60" height="60" viewBox="0 0 60 60" fill="none" xmlns="http://www.w3.org/2000/svg">
<g clip-path="url(#clip0_6_8566)">
<circle cx="29.6484" cy="29.6484" r="29.6484" fill="#5D5E67"/>
<path d="M42.2998 12.9331H16.3149C14.264 12.9331 12.6028 14.5943 12.6028 16.6452V42.6301C12.6028 44.681 14.264 46.3422 16.3149 46.3422H42.2998C44.3507 46.3422 46.0119 44.681 46.0119 42.6301V16.6452C46.0119 14.5943 44.3507 12.9331 42.2998 12.9331ZM21.3968 38.918C20.1031 38.918 19.0544 37.8693 19.0544 36.5756V28.266C19.0563 26.9742 20.105 25.9255 21.3968 25.9255C22.6905 25.9255 23.7391 26.9742 23.7391 28.2679V36.5775C23.7391 37.8693 22.6905 38.918 21.3968 38.918ZM21.3151 23.5442C19.8841 23.5442 18.9282 22.5902 18.9282 21.3169C18.9282 20.0437 19.8823 19.0897 21.4729 19.0897C22.9039 19.0897 23.8598 20.0437 23.8598 21.3169C23.8598 22.5902 22.9058 23.5442 21.3151 23.5442ZM38.1774 38.918C36.9265 38.918 35.9112 37.9027 35.9112 36.6517V31.8167C35.9112 29.853 34.7029 29.6377 34.25 29.6377C33.7971 29.6377 32.2863 29.7026 32.2863 31.8167V36.6517C32.2863 37.9027 31.271 38.918 30.0201 38.918H29.8697C28.6187 38.918 27.6035 37.9027 27.6035 36.6517V28.2679C27.6035 26.9742 28.6521 25.9255 29.9458 25.9255C31.2395 25.9255 32.2882 26.9742 32.2882 28.2679C32.2882 28.2679 32.8116 25.9255 36.3678 25.9255C38.6303 25.9255 40.4437 27.7389 40.4437 31.8167V36.6517C40.4437 37.9027 39.4284 38.918 38.1774 38.918Z" fill="#78D2F9"/>
</g>
<defs>
<clipPath id="clip0_6_8566">
<rect width="60" height="60" fill="white"/>
</clipPath>
</defs>
</svg>
