<svg width="60" height="60" viewBox="0 0 60 60" fill="none" xmlns="http://www.w3.org/2000/svg">
<g clip-path="url(#clip0_6_8565)">
<circle cx="30.1436" cy="32.5" r="27.5" fill="#78D2F9"/>
<path d="M30.0833 0C13.4709 0 0 13.4685 0 30.0833C0 43.3748 8.61973 54.6515 20.5728 58.6292C22.0762 58.9077 22.6283 57.9766 22.6283 57.182C22.6283 56.4647 22.6001 54.0949 22.5874 51.5814C14.2182 53.4009 12.4523 48.0318 12.4523 48.0318C11.0837 44.5546 9.11187 43.6298 9.11187 43.6298C6.38254 41.7628 9.31775 41.8013 9.31775 41.8013C12.3385 42.0133 13.9291 44.9013 13.9291 44.9013C16.6124 49.5002 20.9669 48.1707 22.6835 47.4019C22.9536 45.4578 23.7332 44.1304 24.5936 43.3793C17.9116 42.6187 10.8875 40.0391 10.8875 28.5121C10.8875 25.2277 12.0626 22.5439 13.987 20.4372C13.6746 19.6795 12.645 16.6199 14.2784 12.476C14.2784 12.476 16.8047 11.6675 22.5536 15.5597C24.9532 14.8932 27.5267 14.559 30.0833 14.5475C32.6399 14.559 35.2155 14.893 37.6195 15.5597C43.3614 11.6678 45.8841 12.4762 45.8841 12.4762C47.5216 16.6197 46.4914 19.6797 46.1791 20.4372C48.1079 22.5439 49.2751 25.2277 49.2751 28.5121C49.2751 40.0666 42.2375 42.6107 35.5386 43.3555C36.6176 44.289 37.5791 46.1199 37.5791 48.9265C37.5791 52.9515 37.5443 56.1911 37.5443 57.182C37.5443 57.9827 38.0858 58.9207 39.6107 58.625C51.5571 54.643 60.1661 43.3706 60.1661 30.0835C60.1661 13.4685 46.6971 0 30.0833 0ZM11.2673 42.8542C11.201 43.0037 10.9657 43.0486 10.7516 42.9459C10.5333 42.8479 10.4108 42.6441 10.4814 42.4942C10.5462 42.3402 10.7819 42.2972 10.9996 42.4004C11.2182 42.4986 11.3427 42.7043 11.2673 42.8542ZM12.747 44.1746C12.6036 44.3076 12.323 44.2458 12.1326 44.0357C11.9359 43.826 11.899 43.5454 12.0445 43.4105C12.1926 43.2775 12.4645 43.3398 12.6617 43.5494C12.8586 43.7616 12.8967 44.0401 12.747 44.1746ZM13.7623 45.8639C13.5778 45.992 13.2765 45.8719 13.0901 45.6045C12.9059 45.337 12.9059 45.0162 13.0941 44.8876C13.281 44.7591 13.5778 44.8747 13.7665 45.1403C13.9503 45.4122 13.9503 45.733 13.762 45.8642L13.7623 45.8639ZM15.4789 47.8205C15.3141 48.0024 14.9628 47.9535 14.7057 47.7053C14.4427 47.4628 14.3696 47.1187 14.535 46.9368C14.7019 46.7544 15.0551 46.8057 15.3141 47.052C15.575 47.2941 15.6549 47.6407 15.4789 47.8205ZM17.698 48.4809C17.6251 48.7167 17.2867 48.8238 16.9461 48.7237C16.6058 48.6205 16.3833 48.3446 16.4519 48.1065C16.5226 47.8692 16.8625 47.7578 17.2056 47.8649C17.5455 47.9674 17.7687 48.2412 17.698 48.4809ZM20.2231 48.7613C20.2315 49.0093 19.9427 49.2149 19.585 49.2196C19.2254 49.2276 18.9342 49.0269 18.9302 48.7825C18.9302 48.5322 19.2127 48.3284 19.5725 48.3223C19.9302 48.3152 20.2231 48.5145 20.2231 48.7613ZM22.7038 48.6661C22.7465 48.9082 22.4981 49.1568 22.1428 49.2231C21.7937 49.2868 21.4704 49.1373 21.4259 48.8974C21.3827 48.6492 21.6358 48.4005 21.9844 48.3364C22.3402 48.2746 22.6584 48.4201 22.7038 48.6661Z" fill="#5D5E67"/>
</g>
<defs>
<clipPath id="clip0_6_8565">
<rect width="60" height="60" fill="white"/>
</clipPath>
</defs>
</svg>
