<svg width="683" height="682" viewBox="0 0 683 682" fill="none" xmlns="http://www.w3.org/2000/svg">
<rect x="114" y="118" width="461" height="407" fill="white"/>
<path d="M307.765 0.854489C240.832 8.18782 177.899 34.0545 127.099 74.9878C109.899 88.8545 81.7653 117.788 69.3653 134.321C34.032 181.521 11.4986 235.388 2.96531 293.388C0.0319733 312.988 -0.90136 350.455 0.965307 370.055C6.56531 427.788 24.9653 481.121 54.9653 526.588C110.165 610.455 194.565 664.188 293.765 678.855C313.365 681.788 350.832 682.721 370.432 680.855C428.165 675.255 481.499 656.855 526.965 626.855C610.832 571.655 664.565 487.255 679.232 388.055C682.165 368.455 683.099 330.988 681.232 311.388C674.432 241.521 649.499 179.654 606.832 126.721C592.965 109.521 564.032 81.3878 547.499 68.9878C500.299 33.6545 446.832 11.3878 388.432 2.58782C372.299 0.187823 323.499 -0.878844 307.765 0.854489ZM428.965 313.921C475.232 394.855 513.099 461.255 513.099 461.521C513.099 461.788 437.232 462.055 344.432 462.055C251.632 462.055 175.765 461.788 175.765 461.388C175.765 460.321 344.165 165.921 344.565 166.454C344.699 166.588 382.832 232.988 428.965 313.921Z" fill="black"/>
</svg>
